<?xml version="1.0" encoding="utf-8"?>
<!-- Generator: Adobe Illustrator 19.0.0, SVG Export Plug-In . SVG Version: 6.00 Build 0)  -->
<svg version="1.1" id="Layer_1" xmlns="http://www.w3.org/2000/svg" xmlns:xlink="http://www.w3.org/1999/xlink" x="0px" y="0px"
	 viewBox="-277.6 349 24.3 87.6" style="enable-background:new -277.6 349 24.3 87.6;" xml:space="preserve">
<style type="text/css">
	.st0{opacity:0.7;fill:#00C3FF;enable-background:new    ;}
	.st1{opacity:0.7;}
	.st2{fill:#00B3FF;}
	.st3{fill:#00BBFF;}
	.st4{fill:#73DCFF;}
	.st5{fill:#BDF3FF;}
	.st6{fill:#FFFFFF;}
</style>
<g id="interactables">
	<rect x="-271.1" y="349" class="st0" width="11.8" height="86.1"/>
	<g class="st1">
		<path class="st2" d="M-262.1,352.8c0.1,1.9,0.2,3.9,0.2,5.8c0.1,1.9,0,3.9,0.1,5.8s0,3.9-0.1,5.8c-0.1,1.9-0.1,3.9-0.2,5.8
			c-0.1-1.9-0.2-3.9-0.2-5.8c0-1.9,0-3.9-0.1-5.8c-0.1-1.9,0-3.9,0.1-5.8C-262.3,356.7-262.3,354.8-262.1,352.8z"/>
	</g>
	<g class="st1">
		<path class="st2" d="M-266.4,361.1c0.1,1.9,0.2,3.9,0.2,5.8c0,1.9,0,3.9,0.1,5.8c0.1,1.9,0,3.9-0.1,5.8c-0.1,1.9-0.1,3.9-0.2,5.8
			c-0.1-1.9-0.2-3.9-0.2-5.8c-0.1-1.9,0-3.9-0.1-5.8s0-3.9,0.1-5.8S-266.6,363.1-266.4,361.1z"/>
	</g>
	<g class="st1">
		<path class="st3" d="M-269.3,349.5c0.1,1.9,0.2,3.9,0.2,5.8c0.1,1.9,0,3.9,0.1,5.8c0.1,1.9,0,3.9,0,5.8s-0.1,3.9-0.2,5.8
			c-0.1-1.9-0.2-3.9-0.2-5.8c0-1.9-0.1-3.9-0.1-5.8s0-3.9,0.1-5.8C-269.4,353.4-269.4,351.5-269.3,349.5z"/>
	</g>
	<g class="st1">
		<path class="st3" d="M-264.1,367.4c0.1,1.9,0.2,3.9,0.2,5.8c0,1.9,0,3.9,0.1,5.8s0,3.9-0.1,5.8c-0.1,1.9-0.1,3.9-0.2,5.8
			c-0.1-1.9-0.2-3.9-0.2-5.8s0-3.9-0.1-5.8s0-3.9,0.1-5.8S-264.2,369.3-264.1,367.4z"/>
	</g>
	<g class="st1">
		<path class="st3" d="M-268.4,377.2c0.1,1.9,0.2,3.9,0.2,5.8c0,1.9,0,3.9,0.1,5.8c0.1,1.9,0,3.9-0.1,5.8c-0.1,1.9-0.1,3.9-0.2,5.8
			c-0.1-1.9-0.2-3.9-0.2-5.8c0-1.9-0.1-3.9-0.1-5.8s0-3.9,0.1-5.8C-268.6,381-268.6,379.1-268.4,377.2z"/>
	</g>
	<g class="st1">
		<path class="st3" d="M-264.9,395c0.1,1.9,0.2,3.9,0.2,5.8c0,1.9,0,3.9,0.1,5.8s0,3.9-0.1,5.8c-0.1,1.9-0.1,3.9-0.2,5.8
			c-0.1-1.9-0.2-3.9-0.2-5.8c0-1.9,0-3.9-0.1-5.8c-0.1-1.9,0-3.9,0.1-5.8S-265,397-264.9,395z"/>
	</g>
	<g class="st1">
		<path class="st3" d="M-269.3,405.1c0.1,1.9,0.2,3.9,0.2,5.8c0.1,1.9,0,3.9,0.1,5.8c0.1,1.9,0,3.9-0.1,5.8s-0.1,3.9-0.2,5.8
			c-0.1-1.9-0.2-3.9-0.2-5.8c0-1.9,0-3.9-0.1-5.8c0-1.9,0-3.9,0.1-5.8C-269.4,409-269.4,407.1-269.3,405.1z"/>
	</g>
	<g class="st1">
		<path class="st4" d="M-266.4,410.7c0.1,1.2,0.2,2.5,0.2,3.7c0,1.2,0.1,2.5,0.1,3.7c0,1.2,0,2.5-0.1,3.7c-0.1,1.2-0.1,2.5-0.2,3.7
			c-0.1-1.3-0.2-2.5-0.2-3.7c-0.1-1.3-0.1-2.5-0.1-3.7s0-2.5,0.1-3.7C-266.6,413.2-266.6,412-266.4,410.7z"/>
	</g>
	<g class="st1">
		<path class="st4" d="M-263.6,386.5c0.1,1.3,0.2,2.5,0.2,3.7c0,1.3,0.1,2.5,0.1,3.7s0,2.5-0.1,3.7s-0.1,2.5-0.2,3.7
			c-0.1-1.2-0.2-2.5-0.2-3.7c0-1.2-0.1-2.5-0.1-3.7c0-1.2,0-2.5,0.1-3.7C-263.8,389-263.8,387.7-263.6,386.5z"/>
	</g>
	<g class="st1">
		<path class="st4" d="M-261.4,405.1c0.1,1.2,0.2,2.5,0.2,3.7c0.1,1.3,0.1,2.5,0.1,3.7s0,2.5-0.1,3.7c-0.1,1.2-0.1,2.5-0.2,3.7
			c-0.1-1.2-0.2-2.5-0.2-3.7s-0.1-2.5-0.1-3.7c0-1.2,0-2.5,0.1-3.7C-261.5,407.6-261.5,406.4-261.4,405.1z"/>
	</g>
	<g class="st1">
		<path class="st4" d="M-267.6,376c0.1,1.2,0.2,2.5,0.2,3.7c0,1.3,0.1,2.5,0.1,3.7c0,1.3,0,2.5-0.1,3.7s-0.1,2.5-0.2,3.7
			c-0.1-1.2-0.2-2.5-0.2-3.7c0-1.3-0.1-2.5-0.1-3.7c0-1.2,0-2.5,0.1-3.7S-267.7,377.3-267.6,376z"/>
	</g>
	<g class="st1">
		<path class="st4" d="M-263.2,363.7c0.1,1,0.2,2,0.2,3c0.1,1,0.1,2,0.1,3s0,2-0.1,3s-0.1,2-0.2,3c-0.1-1-0.2-2-0.2-3s-0.1-2-0.1-3
			c0-1,0-2,0.1-3S-263.3,364.7-263.2,363.7z"/>
	</g>
	<g class="st1">
		<path class="st4" d="M-268,353.7c0.1,1.2,0.2,2.5,0.2,3.7s0.1,2.5,0.1,3.7c0,1.2,0,2.5-0.1,3.7c-0.1,1.2-0.1,2.5-0.2,3.7
			c-0.1-1.3-0.2-2.5-0.2-3.7s-0.1-2.5-0.1-3.7s0-2.5,0.1-3.7S-268.1,355-268,353.7z"/>
	</g>
	<g class="st1">
		<path class="st2" d="M-262.5,383.4c0.1,1.9,0.2,3.9,0.2,5.8s0,3.9,0.1,5.8c0.1,1.9,0,3.9-0.1,5.8s-0.1,3.9-0.2,5.8
			c-0.1-1.9-0.2-3.9-0.2-5.8c0-1.9,0-3.9-0.1-5.8c-0.1-1.9,0-3.9,0.1-5.8S-262.6,385.3-262.5,383.4z"/>
	</g>
	<g class="st1">
		<path class="st2" d="M-261.4,360c0.1,1.9,0.2,3.9,0.2,5.8c0.1,1.9,0,3.9,0.1,5.8s0,3.9-0.1,5.8c-0.1,1.9-0.1,3.9-0.2,5.8
			c-0.1-1.9-0.2-3.9-0.2-5.8s0-3.9-0.1-5.8c0-1.9,0-3.9,0.1-5.8C-261.5,363.8-261.5,361.9-261.4,360z"/>
	</g>
	<g class="st1">
		<path class="st2" d="M-267.3,388.8c0.1,1.9,0.2,3.9,0.2,5.8c0,1.9,0,3.9,0.1,5.8s0,3.9-0.1,5.8s-0.1,3.9-0.2,5.8
			c-0.1-1.9-0.2-3.9-0.2-5.8c0-1.9,0-3.9-0.1-5.8s0-3.9,0.1-5.8C-267.4,392.6-267.4,390.7-267.3,388.8z"/>
	</g>
	<g class="st1">
		<path class="st2" d="M-262.5,416c0.1,1.3,0.2,2.6,0.2,4s0,2.6,0.1,4s0,2.6-0.1,4s-0.1,2.6-0.2,4c-0.1-1.3-0.2-2.6-0.2-4
			c0-1.4,0-2.6-0.1-4s0-2.6,0.1-4S-262.6,417.3-262.5,416z"/>
	</g>
	<g class="st1">
		<path class="st2" d="M-260.6,349c0.1,7,0.2,14,0.2,21l0.1,21l-0.1,21c0,7-0.1,14-0.2,21c-0.1-7-0.2-14-0.2-21l-0.1-21l0.1-21
			C-260.8,363-260.7,356-260.6,349z"/>
	</g>
	<g class="st1">
		<path class="st4" d="M-265.2,350.2c0.1,7,0.2,14,0.2,21l0.1,21l-0.1,21c0,7-0.1,14-0.2,21c-0.1-7-0.2-14-0.2-21l-0.1-21l0.1-21
			C-265.4,364.2-265.3,357.2-265.2,350.2z"/>
	</g>
	<g class="st1">
		<path class="st4" d="M-271.1,351.3c0.1,7,0.2,14,0.2,21l0.1,21l-0.1,21c0,7-0.1,14-0.2,21c-0.1-7-0.2-14-0.2-21l-0.1-21l0.1-21
			C-271.3,365.3-271.2,358.3-271.1,351.3z"/>
	</g>
	<g class="st1">
		<path class="st2" d="M-269,351.3c0.1,7,0.2,14,0.2,21l0.1,21l-0.1,21c0,7-0.1,14-0.2,21c-0.1-7-0.2-14-0.2-21l-0.1-21l0.1-21
			C-269.2,365.3-269.1,358.3-269,351.3z"/>
	</g>
	<g class="st1">
		<path class="st2" d="M-259.3,351.3c0.1,7,0.2,14,0.2,21l0.1,21l-0.1,21c0,7-0.1,14-0.2,21c-0.1-7-0.2-14-0.2-21l-0.1-21l0.1-21
			C-259.5,365.3-259.4,358.3-259.3,351.3z"/>
	</g>
	<circle class="st5" cx="-258.8" cy="381" r="0.2"/>
	<circle class="st5" cx="-266" cy="360.5" r="0.1"/>
	<circle class="st6" cx="-260.5" cy="375.7" r="0.4"/>
	<circle class="st6" cx="-266" cy="357.5" r="0.4"/>
	<circle class="st5" cx="-272.6" cy="397.7" r="0.5"/>
	<circle class="st5" cx="-260.6" cy="380" r="0.5"/>
	<circle class="st5" cx="-271" cy="399.2" r="0.8"/>
	<circle class="st5" cx="-269" cy="395.6" r="0.5"/>
	<circle class="st5" cx="-258.8" cy="377.9" r="0.5"/>
	<circle class="st5" cx="-267.3" cy="359.4" r="0.6"/>
	<circle class="st5" cx="-263.2" cy="414.3" r="0.5"/>
	<circle class="st6" cx="-261.7" cy="413.8" r="0.2"/>
	<circle class="st5" cx="-262.5" cy="415.3" r="0.2"/>
	<path class="st5" d="M-257,432.9L-257,432.9c0-0.1,0-0.2,0-0.2c0.1-1-0.7-1.9-1.7-2c-0.6,0-1.1,0.3-1.4,0.9
		c-0.2-0.2-0.4-0.4-0.7-0.4c-0.1,0-0.3,0-0.4,0.1c0-0.7-0.6-1.3-1.3-1.3c-0.7,0.1-1.2,0.6-1.3,1.3c-0.2-0.2-0.4-0.2-0.6-0.3
		c-0.4,0-0.8,0.3-0.9,0.7c-0.2-0.3-0.6-0.4-0.9-0.4c-0.1,0-0.2,0-0.3,0c0-0.8-0.6-1.6-1.4-1.7c-0.8,0.1-1.5,0.8-1.4,1.7
		c-0.1,0-0.2-0.1-0.3-0.1c-0.1,0-0.3,0.1-0.4,0.1c-0.2-0.4-0.6-0.6-1-0.7c-0.8,0.1-1.3,0.8-1.3,1.5c0,0,0,0.1,0,0.1
		c-0.2-0.3-0.6-0.5-1-0.5c-0.4,0-0.8,0.3-1,0.7c-0.1,0.3-0.2,0.5-0.2,0.8l0,0c-0.1-0.1-0.2-0.1-0.3-0.1c-0.4,0.1-0.7,0.5-0.6,0.9
		c0.1,0.3,0.3,0.5,0.6,0.6h17.5c0.6-0.1,0.9-0.7,0.8-1.2C-256.3,433.2-256.6,432.9-257,432.9L-257,432.9z"/>
	<circle class="st6" cx="-272.6" cy="432" r="0.5"/>
	<circle class="st5" cx="-266.3" cy="428.9" r="0.5"/>
	<circle class="st5" cx="-255.7" cy="429.7" r="0.5"/>
	<circle class="st5" cx="-272.8" cy="429.3" r="0.5"/>
	<circle class="st6" cx="-269.8" cy="432" r="0.5"/>
	<circle class="st6" cx="-268" cy="429.9" r="0.4"/>
	<circle class="st6" cx="-266.7" cy="431" r="0.4"/>
	<circle class="st6" cx="-267.8" cy="431.8" r="0.2"/>
	<circle class="st6" cx="-274.5" cy="431.9" r="0.2"/>
	<circle class="st5" cx="-274.3" cy="430.8" r="0.2"/>
	<circle class="st5" cx="-254.8" cy="431.4" r="0.2"/>
	<circle class="st5" cx="-276.3" cy="431.2" r="0.2"/>
	<circle class="st6" cx="-260.3" cy="432.3" r="0.2"/>
	<circle class="st6" cx="-257.4" cy="432.4" r="0.2"/>
	<circle class="st6" cx="-271.6" cy="430.8" r="0.3"/>
	<path class="st6" d="M-257.4,433.7c0-0.3-0.1-0.5-0.3-0.7c-0.2-0.2-0.4-0.3-0.7-0.3c-0.4,0-0.7,0.3-0.9,0.6
		c-0.2-0.2-0.4-0.3-0.7-0.3c-0.2,0-0.4,0.1-0.5,0.2c-0.2-0.3-0.5-0.6-0.9-0.6c-0.4,0-0.7,0.2-0.8,0.5c-0.2-0.3-0.5-0.5-0.8-0.5
		c-0.3,0-0.6,0.2-0.8,0.4c0,0.1-0.1,0.3-0.2,0.2c-0.1-0.1-0.1-0.2-0.1-0.2c-0.1-0.1-0.1-0.2-0.2-0.3c-0.2-0.2-0.4-0.3-0.7-0.3
		c-0.4,0-0.8,0.2-0.9,0.6c-0.2-0.4-0.6-0.6-1.1-0.6c-0.6,0-1.1,0.4-1.2,0.9c-0.1-0.4-0.4-0.7-0.9-0.7c-0.2,0-0.4,0.1-0.6,0.2
		c-0.1,0.1-0.1,0.2-0.2,0.2c0,0-0.1,0.3-0.1,0.3c0,0,0-0.1,0-0.2c0-0.1,0-0.1-0.1-0.2c0-0.1-0.1-0.2-0.2-0.3
		c-0.2-0.2-0.4-0.3-0.7-0.3c-0.6,0-1,0.4-1,1c0,0.1,0,0.1,0,0.2h-0.1c-0.3-0.2-0.6-0.3-1-0.2c-0.4,0.1-0.6,0.5-0.6,0.9
		c0.1,0.5,0.5,0.6,1,0.7h14.5c0.2-0.1,0.3-0.3,0.4-0.5C-257.5,434.2-257.4,434-257.4,433.7z"/>
	<circle class="st6" cx="-263.9" cy="431.8" r="0.2"/>
	<circle class="st6" cx="-263.3" cy="430.8" r="0.2"/>
	<circle class="st5" cx="-263.7" cy="429.9" r="0.2"/>
	<circle class="st5" cx="-260.8" cy="428.4" r="0.2"/>
	<circle class="st5" cx="-267.1" cy="427.9" r="0.2"/>
	<circle class="st5" cx="-276.5" cy="432.7" r="0.2"/>
	<circle class="st5" cx="-254.5" cy="430.3" r="0.2"/>
	<circle class="st6" cx="-258.8" cy="431.3" r="0.2"/>
	<circle class="st6" cx="-265.7" cy="432.3" r="0.2"/>
	<circle class="st6" cx="-270.3" cy="429.7" r="0.2"/>
	<circle class="st6" cx="-273.6" cy="433.2" r="0.2"/>
	<circle class="st6" cx="-262.1" cy="432" r="0.4"/>
	<circle class="st6" cx="-260.3" cy="431.4" r="0.4"/>
	<circle class="st6" cx="-265.2" cy="430.4" r="0.4"/>
	<circle class="st5" cx="-259.9" cy="429.7" r="0.4"/>
	<circle class="st5" cx="-268.8" cy="428.6" r="0.4"/>
	<circle class="st6" cx="-261.7" cy="430" r="0.4"/>
	<circle class="st6" cx="-259.3" cy="432.3" r="0.4"/>
	<circle class="st6" cx="-257.8" cy="430.4" r="0.4"/>
	<circle class="st6" cx="-270.5" cy="436.4" r="0.2"/>
	<circle class="st6" cx="-272.3" cy="436.1" r="0.2"/>
	<circle class="st6" cx="-268.8" cy="435" r="0.2"/>
	<circle class="st5" cx="-271.1" cy="434.9" r="0.1"/>
	<circle class="st6" cx="-263.6" cy="436.5" r="0.1"/>
	<circle class="st6" cx="-263.9" cy="434.7" r="0.2"/>
	<circle class="st6" cx="-262" cy="435.7" r="0.2"/>
	<circle class="st6" cx="-259.3" cy="435.8" r="0.2"/>
	<circle class="st6" cx="-273.9" cy="435.3" r="0.2"/>
	<circle class="st6" cx="-272.6" cy="434.9" r="0.4"/>
	<circle class="st6" cx="-260.5" cy="434.9" r="0.4"/>
	<circle class="st6" cx="-267.4" cy="435.1" r="0.4"/>
	<circle class="st6" cx="-263.6" cy="435.9" r="0.4"/>
	<circle class="st6" cx="-268.2" cy="436.3" r="0.3"/>
	<circle class="st6" cx="-264.6" cy="436" r="0.3"/>
	<circle class="st6" cx="-259.7" cy="434.4" r="0.3"/>
	<circle class="st5" cx="-265.7" cy="435" r="0.3"/>
	<circle class="st5" cx="-270.1" cy="434.2" r="0.3"/>
	<circle class="st5" cx="-263.2" cy="434.5" r="0.3"/>
	<circle class="st5" cx="-257.9" cy="434.9" r="0.3"/>
</g>
</svg>
